<svg width="130" height="49" viewBox="0 0 130 49" fill="none" xmlns="http://www.w3.org/2000/svg">
<path d="M42.6833 21.0265V25.3069H48.9807V42.3992H53.3855V25.3069H59.683V21.0265H42.6833ZM78.8179 22.2678C77.5374 21.3782 75.6242 20.9067 73.2625 20.9067C72.1976 20.9067 66.9543 21.0211 66.7333 21.0265L65.9013 21.0428V42.3992H70.3343V34.6529H73.1661C74.8496 34.691 76.5169 34.3175 78.0249 33.5651C80.094 32.2693 81.3301 29.975 81.2814 27.5261C81.2814 25.136 80.4537 23.3665 78.8179 22.2668V22.2678ZM70.3235 25.3058C71.1901 25.3058 72.4977 25.2438 73.0361 25.2438C76.116 25.2438 76.7455 26.1944 76.7455 27.6176C76.7552 28.4495 76.3771 29.24 75.726 29.7518C74.8171 30.1928 73.8107 30.3888 72.8032 30.3213H70.3343L70.3235 25.3069V25.3058ZM90.6923 25.7566C88.5126 25.7392 86.424 26.6386 84.9333 28.2382C83.3863 29.8313 82.538 31.9818 82.5781 34.2086C82.5478 36.4463 83.396 38.6055 84.9398 40.2193C86.4315 41.8123 88.5148 42.7096 90.6923 42.6954C92.209 42.7139 93.6953 42.2784 94.9628 41.4432V42.1314H99.3395V26.1203L95.03 27.0252C93.743 26.1759 92.2317 25.7338 90.6923 25.7566ZM93.6487 31.0889C94.4374 31.9317 94.8664 33.0522 94.8436 34.2086C94.8685 35.3737 94.4406 36.504 93.6487 37.3555C92.9337 38.1417 91.9219 38.5892 90.8624 38.5892C89.8029 38.5892 88.7921 38.1428 88.076 37.3566C87.2852 36.5018 86.8573 35.3704 86.8876 34.2032C86.8616 33.0468 87.2885 31.9274 88.076 31.0835C88.7824 30.2832 89.7953 29.8258 90.8602 29.8258C91.924 29.8258 92.937 30.2832 93.6433 31.0835L93.6487 31.0889ZM110.354 32.4958L108.655 31.8403C107.126 31.2719 107.126 31.0998 107.126 30.8679C107.126 30.5031 107.126 29.8313 109.074 29.8313C110.473 29.8345 111.851 30.1721 113.095 30.8167L114.307 31.3851V26.7922L113.74 26.582C112.221 26.0049 110.613 25.7055 108.989 25.7C105.07 25.7 102.726 27.5664 102.726 30.6915C102.726 33.8166 104.99 34.9371 106.734 35.5741L108.559 36.2296C110.324 36.8611 110.496 37.0375 110.496 37.3675C110.496 37.8346 110.496 38.6142 108.281 38.6142C106.622 38.6099 104.997 38.1351 103.593 37.2477L102.312 36.5072V41.2265L102.771 41.466C104.476 42.3099 106.353 42.739 108.253 42.7183C112.415 42.7183 114.9 40.7594 114.9 37.4872C114.93 34.4874 112.856 33.429 110.354 32.4958ZM125.094 32.4958L123.395 31.8403C121.866 31.2719 121.866 31.0998 121.866 30.8679C121.866 30.5031 121.866 29.8313 123.814 29.8313C125.213 29.8345 126.591 30.1721 127.834 30.8167L129.047 31.3851V26.7922L128.48 26.582C126.962 26.0049 125.352 25.7055 123.73 25.7C119.81 25.7 117.466 27.5664 117.466 30.6915C117.466 33.8166 119.731 34.9371 121.475 35.5741L123.298 36.2296C125.065 36.8611 125.235 37.0375 125.235 37.3675C125.235 37.8346 125.235 38.6142 123.021 38.6142C121.363 38.6099 119.738 38.1351 118.332 37.2477L117.053 36.5072V41.2265L117.511 41.466C119.215 42.3099 121.094 42.739 122.993 42.7183C127.155 42.7183 129.641 40.7594 129.641 37.4872C129.67 34.4874 127.625 33.429 125.094 32.4958Z" fill="white"/>
<path d="M59.3937 42.4439C60.6663 42.4439 61.698 41.407 61.698 40.1278C61.698 38.8487 60.6663 37.8118 59.3937 37.8118C58.1211 37.8118 57.0895 38.8487 57.0895 40.1278C57.0895 41.407 58.1211 42.4439 59.3937 42.4439Z" fill="url(#paint0_linear_1_274)"/>
<path d="M15.2609 47.6313C19.7697 47.6313 23.9091 44.8916 24.4909 41.5248L25.4269 33.1686C23.6676 34.0594 23.0999 36.0292 19.3895 34.4982C19.3895 34.4982 15.7213 32.487 14.6986 32.1745C9.62322 30.6217 4.81863 34.7856 4.77313 34.8488L6.10672 41.4279C6.6928 44.8296 10.803 47.6313 15.2609 47.6313Z" fill="url(#paint1_linear_1_274)"/>
<path d="M27.6487 19.2668C27.2533 13.8202 23.4595 9.22728 18.2053 7.83568L18.4935 5.15375L20.7826 3.97993L20.8746 3.9331L22.4996 3.11099C22.8387 2.94004 23.0955 2.64168 23.2146 2.28017C23.3327 1.91975 23.3035 1.52666 23.1334 1.18693L22.9341 0.789481C22.9124 0.745925 22.8875 0.70237 22.8615 0.660992C22.4682 0.0425032 21.672 -0.177452 21.0198 0.15357L20.528 0.404014L20.4933 0.420348L15.8566 2.73424C15.5858 2.85837 15.4016 3.11535 15.3691 3.41261L14.9401 7.40666C8.24189 7.42844 2.78514 12.6551 2.30848 19.2668C0.969477 19.5282 0.0020599 20.7042 0.000976562 22.0762V23.4209C0.00314323 24.9497 1.20131 26.2063 2.72014 26.2727L4.59973 40.8856C4.97673 45.459 8.56798 48.9097 12.9501 48.9097H17.2531C21.6351 48.9097 25.2253 45.4612 25.598 40.9368L27.4841 26.2521C28.8967 26.0659 29.9541 24.8583 29.9562 23.4264V22.0805C29.9573 20.7085 28.9899 19.5271 27.6487 19.2668ZM14.977 9.55395C20.4803 9.55395 25.0011 13.8061 25.5016 19.2124H23.414C22.9254 14.957 19.3417 11.649 14.9802 11.649C10.6198 11.649 7.02856 14.957 6.54106 19.2124H4.45456C4.95289 13.8061 9.47148 9.55395 14.977 9.55395ZM21.3784 19.2124H19.0687C18.6246 17.3014 16.9291 15.9501 14.9781 15.9501C13.0259 15.9501 11.3316 17.3014 10.8874 19.2124H8.57773C9.05764 16.0317 11.7779 13.6808 14.9781 13.6808C18.1782 13.6808 20.8985 16.0317 21.3784 19.2124ZM5.93114 34.0866L4.92906 26.2858H12.8699L12.3575 31.1967C9.33823 31.0987 7.19756 32.7103 5.93331 34.0855L5.93114 34.0866ZM23.4194 40.7016C23.1377 44.124 20.4857 46.7047 17.252 46.7047H12.949C9.71414 46.7047 7.06214 44.124 6.77398 40.6504L6.25181 36.5726C6.72956 35.7755 8.67198 32.9651 12.1668 32.9988L11.5211 39.1772C11.4366 39.9851 12.0021 40.7136 12.7854 40.8007L13.2252 40.8497C13.274 40.8551 13.3227 40.8584 13.3715 40.8584C14.1125 40.8519 14.7278 40.2835 14.7961 39.5419L15.3984 33.773C15.5121 33.8242 15.6237 33.871 15.7386 33.9287C19.7686 35.9105 22.5657 35.3138 24.2221 34.4449L23.4205 40.7016H23.4194ZM24.5331 32.0308C23.9914 32.597 21.4791 34.7585 16.5229 32.3204C16.2066 32.1647 15.8989 32.033 15.5934 31.9121L16.1827 26.2847H25.2719L24.5331 32.0308ZM27.7906 23.4188C27.7906 23.6017 27.7191 23.7781 27.5913 23.9066C27.4635 24.0373 27.2891 24.1102 27.1071 24.1102H2.85014C2.47098 24.1102 2.16548 23.8021 2.16548 23.4231V22.0773C2.16548 21.6972 2.47206 21.3902 2.85014 21.3891H27.1071C27.4862 21.3891 27.7917 21.6972 27.7928 22.0773L27.7906 23.4188Z" fill="white"/>
<path d="M17.4839 43.0167C16.8253 43.1604 16.406 43.8127 16.549 44.4758C16.6909 45.1379 17.3398 45.5582 17.9996 45.4155C18.6583 45.274 19.0775 44.6206 18.9356 43.9586C18.8673 43.6406 18.6756 43.3619 18.4048 43.1855C18.1318 43.008 17.8003 42.9481 17.4839 43.0167ZM18.3625 40.2825C18.135 40.3326 17.9617 40.5133 17.9194 40.7431C17.8783 40.9718 17.979 41.2037 18.174 41.33C18.369 41.4563 18.6203 41.452 18.8099 41.3191C19.0006 41.1863 19.0927 40.9511 19.0439 40.7235C18.9768 40.4121 18.6713 40.215 18.3614 40.2825H18.3625ZM10.4412 43.7963C10.2115 43.8464 10.0653 44.0751 10.1151 44.3081C10.1649 44.539 10.3924 44.686 10.6232 44.6348C10.8528 44.5847 10.9991 44.356 10.9493 44.1252C10.9254 44.0141 10.8583 43.9161 10.7629 43.8551C10.6676 43.7931 10.5517 43.7724 10.4412 43.7963ZM15.1764 41.0513C14.8558 41.1199 14.6098 41.3779 14.5513 41.7013C14.4928 42.0247 14.6348 42.3525 14.9099 42.5311C15.1862 42.7085 15.5404 42.702 15.8091 42.5147C16.0799 42.3263 16.2099 41.9942 16.1395 41.673C16.0442 41.2331 15.613 40.9544 15.1753 41.0502L15.1764 41.0513ZM10.3621 41.0513C9.92442 41.146 9.64709 41.5794 9.74242 42.0193C9.83776 42.4581 10.27 42.7369 10.7066 42.641C11.1432 42.5452 11.4216 42.1118 11.3252 41.6719C11.2797 41.4618 11.1529 41.2777 10.972 41.1601C10.7911 41.0436 10.5712 41.0044 10.3621 41.0513ZM17.9183 38.9116C18.3842 38.8103 18.7417 38.4368 18.8273 37.9654C18.9118 37.495 18.7059 37.018 18.3051 36.76C17.9043 36.5008 17.3886 36.5095 16.9975 36.7828C16.6064 37.0561 16.4168 37.5396 16.5187 38.0067C16.6563 38.6448 17.2835 39.0499 17.9183 38.9116ZM12.5829 43.6025C12.2038 43.8421 12.09 44.343 12.3262 44.7241C12.5634 45.1052 13.0618 45.2206 13.442 44.9843C13.8212 44.7469 13.9371 44.2461 13.702 43.8639C13.5883 43.6798 13.4063 43.5481 13.1961 43.5002C12.987 43.4512 12.766 43.4882 12.5829 43.6025ZM20.7274 39.4462C20.9647 39.8274 21.4641 39.9428 21.8433 39.7043C22.2224 39.4648 22.3373 38.9639 22.1 38.5827C21.8628 38.2016 21.3633 38.0851 20.9842 38.3236C20.8011 38.4379 20.6722 38.6209 20.6234 38.831C20.5758 39.0412 20.6126 39.2633 20.7274 39.4462ZM20.6202 41.7656C20.241 42.004 20.1251 42.506 20.3623 42.8871C20.6007 43.2682 21.099 43.3847 21.4782 43.1463C21.8573 42.9078 21.9733 42.4058 21.736 42.0247C21.6223 41.8418 21.4413 41.7111 21.2312 41.6621C21.0221 41.6142 20.8022 41.6512 20.6202 41.7656ZM9.90601 38.3976C9.56692 37.8532 8.85409 37.6899 8.31351 38.0296C7.77184 38.3704 7.60826 39.0858 7.94626 39.6303C8.28534 40.1747 8.99709 40.3391 9.53876 40.0005C9.79876 39.8361 9.98401 39.5758 10.0533 39.2753C10.1216 38.9748 10.0685 38.659 9.90601 38.3976Z" fill="white"/>
<defs>
<linearGradient id="paint0_linear_1_274" x1="57.0951" y1="40.1278" x2="61.698" y2="40.1278" gradientUnits="userSpaceOnUse">
<stop stop-color="#59C4C9"/>
<stop offset="0.37" stop-color="#41B1BE"/>
<stop offset="1" stop-color="#0F8BA8"/>
</linearGradient>
<linearGradient id="paint1_linear_1_274" x1="4.77313" y1="39.7304" x2="25.4263" y2="39.7304" gradientUnits="userSpaceOnUse">
<stop stop-color="#59C4C9"/>
<stop offset="0.37" stop-color="#41B1BE"/>
<stop offset="1" stop-color="#0F8BA8"/>
</linearGradient>
</defs>
</svg>
